<svg enable-background="new 0 0 294.4 294.5" viewBox="0 0 294.4 294.5" xmlns="http://www.w3.org/2000/svg" xmlns:xlink="http://www.w3.org/1999/xlink"><clipPath id="a"><path d="m-100.1-168.6v-55.9c0-5.6-4.5-10.1-10.1-10.1h-117.4c-6.8 0-12.3 5.5-12.3 12.3v51.6c0 3.1-.1 6.3-.2 9.4v1.9c0 38.7 31.3 70 70 70.1 38.7 0 70.1-31.3 70.1-70 0 0 0 0 0-.1 0-.9 0-1.8-.1-2.6.1-2.1 0-4.4 0-6.6z"/></clipPath><clipPath id="b"><path d="m228.9 106.7c-.3-.5-.5-1-.7-1.5-.7-1.8-.7-3.8-1.1-5.6-.3-2-1.2-3.9-2.5-5.4s-3.2-2.5-5.3-2.6c-8.8-.3-13.1 12.5-14.9 19-1.3 4.8-1.5 9.8-3.3 14.5-.3.8-.7 1.5-1.2 2.1-2.2 2.2-4.1-.4-4.9-2.5-1.7-4.6-4.7-12.2-11.1-10.5-1.4.4-2.8 2-3.6 3.2-2.2 3.1-2.5 6.6-2.8 10.3-.3 4.7-.1 9.5.7 14.2.4 2.4 1.1 4.7 2 7 .5 1.2 1.7 3.4 1.2 4.8-.7 2.3-4.3-4.2-5-4.8-1.3-1.1-3.4-1-4.5.4-.1.1-.2.2-.2.3-2.2 3-1.2 7.1-2.9 10.3-.2.5-.5.8-1 1-.3.1-.7 0-1-.1-8.8-1.6-8 11.5-7.8 17.1.2 3.8 1.1 8.5 4.6 10.6 4.5 2.8 10 4 15.3 4.6 4.2.4 12.4 2.3 14.4-3 1.1-2.7-1.9-4.3-1.2-6.3 1.3-3.9 7.7 1.4 9.4 2 3.4 1.2 7.2-.1 9.1-3.1 1.7-2.5 1.7-5.7-.7-7.7-.8-.6-1.7-1.2-2.5-1.9-.7-.5-1-1.4-.9-2.2.6-2.3 4.5-.3 5.8 0 2.4.6 4.8 1.1 7.3 1.4 5.3.8 11.3 1.1 16.3-1.3 1.8-.8 3.3-2.1 4.4-3.7.7-1.3.9-2.7.5-4.1-.4-1.6-1.3-3-2.5-4.2-1.4-1.4-3.8-2.2-4.5-4.2-.3-.8-.2-1.6.3-2.2.4-.4.8-.7 1.3-.8 2.1-.7 4.5-.8 6.6-1.3 2.4-.6 4.7-1.3 6.9-2.2 4.4-1.8 8.3-4.7 11.1-8.6 2.4-3.4 1.1-7.4-2.6-9.1-1.4-.7-3.2-1.1-4.6-1.8-2-1-2.1-2.7-1.1-4.6 2.9-5.3 7.3-9.5 10.9-14.3 0 0 9.9-13.2 2.2-18.9-2.7-2.2-6.5-2.8-9.8-1.5-2.3 1.1-4.3 2.7-5.8 4.7-2.5 3.3-15.1 20.6-20.3 12.5z"/></clipPath><clipPath id="c"><path d="m53.4 164.6c.1-.5.2-1 .2-1.6.1-1.8-.5-3.6-.7-5.5-.3-1.9 0-3.9.7-5.7s2.2-3.3 4-4c7.9-2.9 15.7 7.5 19.2 12.9 2.6 4 4.3 8.6 7.4 12.3.5.7 1.1 1.2 1.8 1.6 2.6 1.4 3.6-1.6 3.7-3.7.2-4.8.7-12.6 7-12.9 1.4-.1 3.2 1 4.2 1.8 2.9 2.2 4.3 5.3 5.6 8.6 1.7 4.2 2.9 8.6 3.6 13.1.3 2.3.4 4.7.3 7-.1 1.3-.5 3.6.3 4.8 1.4 1.9 2.7-5.1 3.1-5.8.9-1.4 2.8-1.9 4.2-1 .1.1.2.1.3.2 2.9 2.1 3.2 6.2 5.7 8.5.3.4.8.6 1.2.6.3 0 .6-.2.9-.3 7.6-4.1 10.8 8.1 12.2 13.3 1 3.6 1.5 8.1-1 11.1-3.3 3.9-8 6.6-12.6 8.7-3.7 1.6-10.6 5.8-14.1 1.6-1.8-2.1.4-4.5-.8-6.2-2.3-3.1-6.6 3.6-8 4.6-2.7 2.1-6.6 2.1-9.3-.1-2.3-1.7-3.3-4.7-1.6-7.2.6-.8 1.2-1.6 1.7-2.4.5-.7.5-1.6.2-2.3-1.2-1.9-4.2 1.1-5.3 1.7-2 1.2-4.1 2.4-6.2 3.5-4.6 2.3-10 4.3-15.2 3.6-1.9-.2-3.7-1-5.2-2.1-1-.9-1.6-2.2-1.7-3.6-.1-1.6.3-3.1 1-4.6.8-1.7 2.8-3.1 2.8-5.2 0-.8-.3-1.6-1-2-.4-.2-1-.4-1.5-.3-2.1 0-4.3.6-6.5.8-2.3.2-4.7.2-7 0-4.6-.3-9-1.9-12.7-4.5-3.2-2.4-3.2-6.4-.3-9.1 1.1-1 2.6-2 3.6-3 1.5-1.5 1.1-3.1-.4-4.5-4.2-4-9.5-6.5-14.2-9.8 0 0-13-9.1-7.7-16.6 1.8-2.9 5.1-4.5 8.5-4.3 2.4.3 4.7 1.2 6.7 2.6 3.9 2.3 20.6 14.3 22.9 5.4z"/></clipPath><linearGradient id="d" gradientTransform="matrix(1 0 0 -1 0 296)" gradientUnits="userSpaceOnUse" x1="155.4243" x2="88.9144" y1="141.1587" y2="65.1987"><stop offset="0" stop-color="#231f20" stop-opacity=".45"/><stop offset="1" stop-color="#18265a"/></linearGradient><g clip-path="url(#a)" fill="none" opacity=".31" stroke="#fff" stroke-miterlimit="10"><g stroke-width=".5"><path d="m-432.6-25.9c78.1-1.1 78.6 30.1 156.6 29s77.6-32.4 155.7-33.5 78.6 30.1 156.7 28.9 77.7-32.4 155.8-33.5 78.5 30.1 156.6 28.9"/><path d="m-432.4-9.8c78.1-1.1 78.5 30.1 156.6 28.9s77.6-32.4 155.7-33.5 78.6 30.1 156.6 28.9 77.8-32.3 155.9-33.5 78.5 30.1 156.6 29"/><path d="m-432.1 6.2c78.1-1.2 78.6 30.1 156.6 28.9s77.6-32.4 155.7-33.5 78.6 30.1 156.6 28.9 77.7-32.3 155.8-33.5 78.5 30.1 156.6 29"/></g><path d="m-432.4-18c78.1-1.1 78.5 30.1 156.6 29s77.6-32.4 155.7-33.6 78.6 30.1 156.7 29 77.7-32.4 155.8-33.6 78.5 30.1 156.6 29"/><path d="m-432.1-2c78.1-1.1 78.5 30.1 156.6 29s77.6-32.4 155.7-33.5 78.6 30.1 156.6 28.9 77.7-32.4 155.8-33.5 78.5 30.1 156.6 28.9"/></g><circle cx="147.2" cy="147.2" fill="#fff" opacity=".5" r="146.5"/><g clip-path="url(#b)"><path d="m228.9 106.7c-.3-.5-.5-1-.7-1.5-.7-1.8-.7-3.8-1.1-5.6-.3-2-1.2-3.9-2.5-5.4s-3.2-2.5-5.3-2.6c-8.8-.3-13.1 12.5-14.9 19-1.3 4.8-1.5 9.8-3.3 14.5-.3.8-.7 1.5-1.2 2.1-2.2 2.2-4.1-.4-4.9-2.5-1.7-4.6-4.7-12.2-11.1-10.5-1.4.4-2.8 2-3.6 3.2-2.2 3.1-2.5 6.6-2.8 10.3-.3 4.7-.1 9.5.7 14.2.4 2.4 1.1 4.7 2 7 .5 1.2 1.7 3.4 1.2 4.8-.7 2.3-4.3-4.2-5-4.8-1.3-1.1-3.4-1-4.5.4-.1.1-.2.2-.2.3-2.2 3-1.2 7.1-2.9 10.3-.2.5-.5.8-1 1-.3.1-.7 0-1-.1-8.8-1.6-8 11.5-7.8 17.1.2 3.8 1.1 8.5 4.6 10.6 4.5 2.8 10 4 15.3 4.6 4.2.4 12.4 2.3 14.4-3 1.1-2.7-1.9-4.3-1.2-6.3 1.3-3.9 7.7 1.4 9.4 2 3.4 1.2 7.2-.1 9.1-3.1 1.7-2.5 1.7-5.7-.7-7.7-.8-.6-1.7-1.2-2.5-1.9-.7-.5-1-1.4-.9-2.2.6-2.3 4.5-.3 5.8 0 2.4.6 4.8 1.1 7.3 1.4 5.3.8 11.3 1.1 16.3-1.3 1.8-.8 3.3-2.1 4.4-3.7.7-1.3.9-2.7.5-4.1-.4-1.6-1.3-3-2.5-4.2-1.4-1.4-3.8-2.2-4.5-4.2-.3-.8-.2-1.6.3-2.2.4-.4.8-.7 1.3-.8 2.1-.7 4.5-.8 6.6-1.3 2.4-.6 4.7-1.3 6.9-2.2 4.4-1.8 8.3-4.7 11.1-8.6 2.4-3.4 1.1-7.4-2.6-9.1-1.4-.7-3.2-1.1-4.6-1.8-2-1-2.1-2.7-1.1-4.6 2.9-5.3 7.3-9.5 10.9-14.3 0 0 9.9-13.2 2.2-18.9-2.7-2.2-6.5-2.8-9.8-1.5-2.3 1.1-4.3 2.7-5.8 4.7-2.5 3.3-15.1 20.6-20.3 12.5z" fill="#87e5b7"/><g fill="none" stroke="#fff" stroke-miterlimit="10" stroke-width=".5"><path d="m268.8 83.1s-73.9 90.9-123.2 113.4" opacity=".4"/><path d="m260.2 139.7-42.5-.4-3.7-49.2" opacity=".4"/><path d="m278.9 120.6-42.5-.4-3.7-49.1" opacity=".4"/><path d="m295.7 101.8-42.5-.4-3.7-49.2" opacity=".4"/><path d="m242.5 157.1-42.4-.4-3.8-49.2" opacity=".4"/><path d="m232.9 173.9-50.2-2.2-5.1-61.7" opacity=".4"/></g></g><path d="m53.2 164.7c.1-.5.2-1 .2-1.6.1-1.8-.5-3.6-.7-5.5-.3-1.9 0-3.9.7-5.7s2.2-3.3 4-4c7.9-2.9 15.7 7.5 19.2 12.9 2.6 4 4.3 8.6 7.4 12.3.5.6 1.1 1.2 1.8 1.6 2.6 1.4 3.6-1.6 3.7-3.7.2-4.8.7-12.6 7-12.9 1.4-.1 3.2 1 4.2 1.8 2.9 2.2 4.3 5.3 5.6 8.6 1.7 4.2 2.9 8.6 3.6 13.1.3 2.3.4 4.7.3 7-.1 1.3-.5 3.6.3 4.8 1.4 1.9 2.7-5.1 3.1-5.8.9-1.4 2.8-1.9 4.2-1 .1.1.2.1.3.2 2.9 2.1 3.2 6.2 5.7 8.5.3.4.8.6 1.2.6.3 0 .6-.2.9-.3 7.6-4.1 10.8 8.1 12.2 13.3 1 3.6 1.5 8.1-1 11.1-3.3 3.9-8 6.6-12.6 8.7-3.7 1.6-10.6 5.8-14.1 1.6-1.8-2.1.4-4.5-.8-6.2-2.3-3.1-6.6 3.6-8 4.6-2.7 2.1-6.6 2.1-9.3-.1-2.3-1.7-3.3-4.7-1.6-7.2.6-.8 1.2-1.6 1.7-2.4.5-.7.5-1.6.2-2.3-1.2-1.9-4.2 1.1-5.3 1.7-2 1.2-4.1 2.4-6.2 3.5-4.6 2.3-10 4.3-15.2 3.6-1.9-.3-3.6-1-5.1-2.1-1-.9-1.6-2.2-1.7-3.6-.1-1.6.3-3.1 1-4.6.8-1.7 2.8-3.1 2.8-5.2 0-.8-.3-1.6-1-2-.4-.2-1-.4-1.5-.3-2.1 0-4.3.6-6.5.8-2.3.2-4.7.2-7 0-4.6-.3-9-1.9-12.7-4.5-3.2-2.4-3.2-6.4-.3-9.1 1.1-1 2.6-2 3.6-3 1.5-1.5 1.1-3.1-.4-4.5-4.2-4-9.5-6.5-14.2-9.8 0 0-13-9.1-7.7-16.6 1.8-2.9 5.1-4.5 8.5-4.3 2.4.3 4.7 1.2 6.7 2.6 3.8 2.3 20.5 14.3 22.8 5.4z" fill="#51ac81"/><g clip-path="url(#c)" fill="none" stroke="#fff" stroke-miterlimit="10" stroke-width=".5"><path d="m9.9 155s94.7 61 146.4 66.9" opacity=".4"/><path d="m34.7 204.1 38.7-13.1-11.3-46" opacity=".4"/><path d="m11.9 192.2 38.7-13-11.3-46" opacity=".4"/><path d="m-9.1 180.1 38.7-13.1-11.3-46" opacity=".4"/><path d="m56 214.7 38.7-13-11.3-46.1" opacity=".4"/><path d="m69.8 227.2 45.2-17-13.7-57.9" opacity=".4"/></g><path d="m144.1 65.4c-12.6 0-22.9 10.2-22.9 22.9v8.1c14.9-4.3 30.8-4.3 45.8 0v-8.1c0-12.7-10.3-22.9-22.9-22.9z" fill="none"/><path d="m121.2 88.3c.3-12.6 10.7-22.7 23.4-22.4 12.3.3 22.1 10.1 22.4 22.4v8.1c4.8 1.4 9.4 3.2 13.9 5.5v-13.6c0-20.3-16.5-36.8-36.8-36.8s-36.8 16.5-36.8 36.8v13.6c4.5-2.3 9.1-4.1 13.9-5.5z" fill="#7165c5"/><path d="m121.2 115.5v-19.2c-4.8 1.4-9.4 3.2-13.9 5.5v13.7z" fill="#6059b2"/><path d="m167 119.1h13.9v-17.3c-4.5-2.3-9.1-4.1-13.9-5.5z" fill="#6059b2"/><path d="m207.2 172.5v-49.7c0-5-4-9-9-9h-104.2c-6 0-11 4.8-11 10.9v.1 45.9c0 2.8-.1 5.6-.2 8.4v1.7c.4 34.4 28.7 61.9 63.1 61.5 33.8-.4 61.1-27.7 61.5-61.5 0-.8 0-1.6-.1-2.4-.1-2-.1-3.9-.1-5.9z" fill="#7165c5"/><path d="m196.1 173.9v-40.2c0-4-3.3-7.3-7.3-7.3h-84.5c-4.9 0-8.9 4-8.9 8.9v37.2c0 2.3-.1 4.5-.2 6.8v1.4c0 27.9 22.6 50.5 50.5 50.5s50.5-22.6 50.5-50.5c0-.6 0-1.3 0-1.9-.1-1.7-.1-3.3-.1-4.9z" fill="url(#d)" opacity=".1"/><g fill="#472b70"><circle cx="144.2" cy="163.8" r="11.7"/><path d="m140.9 165.5-9.8 25.8c-.7 1.8.2 3.8 2 4.5.4.2.8.2 1.2.2h19.7c1.9 0 3.5-1.6 3.5-3.5 0-.4-.1-.8-.2-1.2l-9.8-25.8c-.7-1.8-2.7-2.7-4.5-2-1 .4-1.7 1.1-2.1 2z"/></g></svg>